# Blender v2.79 (sub 0) OBJ File: 'flagboi.blend'
# www.blender.org
mtllib flagboi3.mtl
o Cylinder
v -0.282997 0.900035 -1.282064
v -0.268373 2.735760 -1.696472
v -0.340785 0.900035 -1.287756
v -0.248864 2.735760 -1.694551
v -0.396353 0.900035 -1.304612
v -0.230105 2.735760 -1.688860
v -0.447565 0.900035 -1.331985
v -0.212816 2.735760 -1.679619
v -0.492452 0.900035 -1.368823
v -0.197663 2.735760 -1.667183
v -0.529290 0.900035 -1.413711
v -0.185226 2.735760 -1.652029
v -0.556663 0.900035 -1.464922
v -0.175985 2.735760 -1.634741
v -0.573519 0.900035 -1.520490
v -0.170295 2.735760 -1.615981
v -0.579211 0.900035 -1.578279
v -0.168373 2.735760 -1.596472
v -0.573519 0.900035 -1.636067
v -0.170295 2.735760 -1.576963
v -0.556663 0.900035 -1.691635
v -0.175985 2.735760 -1.558204
v -0.529290 0.900035 -1.742847
v -0.185226 2.735760 -1.540915
v -0.492452 0.900035 -1.787734
v -0.197663 2.735760 -1.525762
v -0.447565 0.900035 -1.824572
v -0.212816 2.735760 -1.513325
v -0.396353 0.900035 -1.851946
v -0.230105 2.735760 -1.504084
v -0.340785 0.900035 -1.868802
v -0.248864 2.735760 -1.498394
v -0.282996 0.900035 -1.874493
v -0.268373 2.735760 -1.496472
v -0.225208 0.900035 -1.868802
v -0.287882 2.735760 -1.498394
v -0.169640 0.900035 -1.851945
v -0.306642 2.735760 -1.504084
v -0.118428 0.900035 -1.824572
v -0.323930 2.735760 -1.513325
v -0.073541 0.900035 -1.787734
v -0.339084 2.735760 -1.525762
v -0.036703 0.900035 -1.742847
v -0.351520 2.735760 -1.540915
v -0.009330 0.900035 -1.691635
v -0.360761 2.735760 -1.558204
v 0.007527 0.900035 -1.636067
v -0.366452 2.735760 -1.576963
v 0.013218 0.900035 -1.578279
v -0.368373 2.735760 -1.596473
v 0.007526 0.900035 -1.520490
v -0.366452 2.735760 -1.615982
v -0.009330 0.900035 -1.464922
v -0.360761 2.735760 -1.634741
v -0.036703 0.900035 -1.413710
v -0.351520 2.735760 -1.652030
v -0.073541 0.900035 -1.368823
v -0.339084 2.735760 -1.667183
v -0.118429 0.900035 -1.331985
v -0.323930 2.735760 -1.679619
v -0.169640 0.900035 -1.304612
v -0.306641 2.735760 -1.688860
v -0.225208 0.900035 -1.287756
v -0.287882 2.735760 -1.694551
v -0.358415 2.215617 -1.580761
v -0.358415 2.654443 -1.580761
v -0.353695 2.215617 -1.581766
v -0.353695 2.648341 -1.581766
v 0.936362 2.209515 -1.580761
v 0.936362 2.648341 -1.580761
v 0.936362 2.215617 -1.581766
v 0.936362 2.648341 -1.581766
v -0.282996 0.900035 -1.678279
v -0.263487 0.900035 -1.676357
v -0.244728 0.900035 -1.670667
v -0.227439 0.900035 -1.661426
v -0.212286 0.900035 -1.648989
v -0.199849 0.900035 -1.633836
v -0.190608 0.900035 -1.616547
v -0.184918 0.900035 -1.597788
v -0.182996 0.900035 -1.578279
v -0.184918 0.900035 -1.558770
v -0.190608 0.900035 -1.540010
v -0.199849 0.900035 -1.522722
v -0.212286 0.900035 -1.507568
v -0.227439 0.900035 -1.495132
v -0.244728 0.900035 -1.485891
v -0.263487 0.900035 -1.480200
v -0.282996 0.900035 -1.478279
v -0.302506 0.900035 -1.480200
v -0.321265 0.900035 -1.485891
v -0.338554 0.900035 -1.495132
v -0.353707 0.900035 -1.507568
v -0.366143 0.900035 -1.522722
v -0.375384 0.900035 -1.540010
v -0.381075 0.900035 -1.558770
v -0.382996 0.900035 -1.578279
v -0.381075 0.900035 -1.597788
v -0.375384 0.900035 -1.616547
v -0.366143 0.900035 -1.633836
v -0.353707 0.900035 -1.648990
v -0.338553 0.900035 -1.661426
v -0.321265 0.900035 -1.670667
v -0.302505 0.900035 -1.676357
vn 0.0980 -0.0106 -0.9951
vn 0.2903 -0.0118 -0.9569
vn 0.4714 -0.0125 -0.8819
vn 0.6343 -0.0127 -0.7729
vn 0.7730 -0.0124 -0.6343
vn 0.8819 -0.0117 -0.4714
vn 0.9569 -0.0105 -0.2903
vn 0.9951 -0.0089 -0.0980
vn 0.9952 -0.0070 0.0980
vn 0.9569 -0.0047 0.2903
vn 0.8819 -0.0024 0.4714
vn 0.7730 0.0001 0.6344
vn 0.6344 0.0026 0.7730
vn 0.4714 0.0050 0.8819
vn 0.2903 0.0072 0.9569
vn 0.0980 0.0091 0.9951
vn -0.0980 0.0106 0.9951
vn -0.2903 0.0118 0.9569
vn -0.4714 0.0125 0.8819
vn -0.6343 0.0127 0.7729
vn -0.7730 0.0124 0.6343
vn -0.8819 0.0117 0.4714
vn -0.9569 0.0105 0.2903
vn -0.9951 0.0089 0.0980
vn -0.9952 0.0070 -0.0980
vn -0.9569 0.0047 -0.2903
vn -0.8819 0.0024 -0.4714
vn -0.7730 -0.0001 -0.6344
vn -0.6344 -0.0026 -0.7730
vn -0.4714 -0.0050 -0.8819
vn 0.0000 1.0000 0.0000
vn -0.2903 -0.0072 -0.9569
vn -0.0980 -0.0091 -0.9951
vn 0.0000 -1.0000 0.0000
vn -0.2083 0.0000 -0.9781
vn 0.0000 0.0000 -1.0000
vn 1.0000 0.0000 0.0000
vn 0.0000 0.0000 1.0000
vn -0.0007 -0.3123 -0.9500
vn 0.0007 0.3134 -0.9496
usemtl None
s off
f 73//1 2//1 4//1 74//1
f 74//2 4//2 6//2 75//2
f 75//3 6//3 8//3 76//3
f 76//4 8//4 10//4 77//4
f 77//5 10//5 12//5 78//5
f 78//6 12//6 14//6 79//6
f 79//7 14//7 16//7 80//7
f 80//8 16//8 18//8 81//8
f 81//9 18//9 20//9 82//9
f 82//10 20//10 22//10 83//10
f 83//11 22//11 24//11 84//11
f 84//12 24//12 26//12 85//12
f 85//13 26//13 28//13 86//13
f 86//14 28//14 30//14 87//14
f 87//15 30//15 32//15 88//15
f 88//16 32//16 34//16 89//16
f 89//17 34//17 36//17 90//17
f 90//18 36//18 38//18 91//18
f 91//19 38//19 40//19 92//19
f 92//20 40//20 42//20 93//20
f 93//21 42//21 44//21 94//21
f 94//22 44//22 46//22 95//22
f 95//23 46//23 48//23 96//23
f 96//24 48//24 50//24 97//24
f 97//25 50//25 52//25 98//25
f 98//26 52//26 54//26 99//26
f 99//27 54//27 56//27 100//27
f 100//28 56//28 58//28 101//28
f 101//29 58//29 60//29 102//29
f 102//30 60//30 62//30 103//30
f 4//31 2//31 64//31 62//31 60//31 58//31 56//31 54//31 52//31 50//31 48//31 46//31 44//31 42//31 40//31 38//31 36//31 34//31 32//31 30//31 28//31 26//31 24//31 22//31 20//31 18//31 16//31 14//31 12//31 10//31 8//31 6//31
f 103//32 62//32 64//32 104//32
f 104//33 64//33 2//33 73//33
f 1//34 3//34 5//34 7//34 9//34 11//34 13//34 15//34 17//34 19//34 21//34 23//34 25//34 27//34 29//34 31//34 33//34 35//34 37//34 39//34 41//34 43//34 45//34 47//34 49//34 51//34 53//34 55//34 57//34 59//34 61//34 63//34
f 65//35 66//35 68//35 67//35
f 67//36 68//36 72//36 71//36
f 71//37 72//37 70//37 69//37
f 69//38 70//38 66//38 65//38
f 67//39 71//39 69//39 65//39
f 72//40 68//40 66//40 70//40
f 3//31 1//31 73//31 74//31
f 5//31 3//31 74//31 75//31
f 7//31 5//31 75//31 76//31
f 9//31 7//31 76//31 77//31
f 11//31 9//31 77//31 78//31
f 13//31 11//31 78//31 79//31
f 15//31 13//31 79//31 80//31
f 17//31 15//31 80//31 81//31
f 19//31 17//31 81//31 82//31
f 21//31 19//31 82//31 83//31
f 23//31 21//31 83//31 84//31
f 25//31 23//31 84//31 85//31
f 27//31 25//31 85//31 86//31
f 29//31 27//31 86//31 87//31
f 31//31 29//31 87//31 88//31
f 33//31 31//31 88//31 89//31
f 35//31 33//31 89//31 90//31
f 37//31 35//31 90//31 91//31
f 39//31 37//31 91//31 92//31
f 41//31 39//31 92//31 93//31
f 43//31 41//31 93//31 94//31
f 45//31 43//31 94//31 95//31
f 47//31 45//31 95//31 96//31
f 49//31 47//31 96//31 97//31
f 51//31 49//31 97//31 98//31
f 53//31 51//31 98//31 99//31
f 55//31 53//31 99//31 100//31
f 57//31 55//31 100//31 101//31
f 59//31 57//31 101//31 102//31
f 61//31 59//31 102//31 103//31
f 63//31 61//31 103//31 104//31
f 1//31 63//31 104//31 73//31
